HIERARCHY
ROOT mixamorig:Hips
{
	OFFSET -0.000007 99.791939 0.000048
	CHANNELS 6 Xposition Yposition Zposition Xrotation Yrotation Zrotation
	JOINT mixamorig:Spine
	{
		OFFSET -0.000008 9.923462 -1.227335
		CHANNELS 3 Xrotation Yrotation Zrotation
		JOINT mixamorig:Spine1
		{
			OFFSET -0.001162 11.645439 -1.422341
			CHANNELS 3 Xrotation Yrotation Zrotation
			JOINT mixamorig:Spine2
			{
				OFFSET -0.001082 13.360199 -1.626459
				CHANNELS 3 Xrotation Yrotation Zrotation
				JOINT mixamorig:Neck
				{
					OFFSET -0.001294 15.032486 0.792904
					CHANNELS 3 Xrotation Yrotation Zrotation
					JOINT mixamorig:Head
					{
						OFFSET -0.000902 10.321838 3.142429
						CHANNELS 3 Xrotation Yrotation Zrotation
						JOINT mixamorig:HeadTop_End
						{
							OFFSET -0.001464 18.474670 6.636400
							CHANNELS 3 Xrotation Yrotation Zrotation
							End Site
							{
								OFFSET -0.001724 19.630463 0.000000
							}
						}
					}
				}
				JOINT mixamorig:LeftShoulder
				{
					OFFSET 6.105025 9.110947 0.705547
					CHANNELS 3 Xrotation Yrotation Zrotation
					JOINT mixamorig:LeftArm
					{
						OFFSET 12.655060 -0.264816 -2.600928
						CHANNELS 3 Xrotation Yrotation Zrotation
						JOINT mixamorig:LeftForeArm
						{
							OFFSET 27.404680 0.002457 -0.000007
							CHANNELS 3 Xrotation Yrotation Zrotation
							JOINT mixamorig:LeftHand
							{
								OFFSET 27.614456 0.002457 0.000007
								CHANNELS 3 Xrotation Yrotation Zrotation
								JOINT mixamorig:LeftHandThumb1
								{
									OFFSET 3.789009 -2.166824 3.002973
									CHANNELS 3 Xrotation Yrotation Zrotation
									JOINT mixamorig:LeftHandThumb2
									{
										OFFSET 3.675636 -2.121704 2.122010
										CHANNELS 3 Xrotation Yrotation Zrotation
										JOINT mixamorig:LeftHandThumb3
										{
											OFFSET 3.394531 -1.959473 1.959746
											CHANNELS 3 Xrotation Yrotation Zrotation
											JOINT mixamorig:LeftHandThumb4
											{
												OFFSET 2.679504 -1.546753 1.546951
												CHANNELS 3 Xrotation Yrotation Zrotation
												End Site
												{
													OFFSET 2.400604 -1.530380 1.964751
												}
											}
										}
									}
								}
								JOINT mixamorig:LeftHandIndex1
								{
									OFFSET 12.266647 -0.230743 2.822040
									CHANNELS 3 Xrotation Yrotation Zrotation
									JOINT mixamorig:LeftHandIndex2
									{
										OFFSET 3.891968 0.000336 0.000037
										CHANNELS 3 Xrotation Yrotation Zrotation
										JOINT mixamorig:LeftHandIndex3
										{
											OFFSET 3.415161 0.000305 -0.000010
											CHANNELS 3 Xrotation Yrotation Zrotation
											JOINT mixamorig:LeftHandIndex4
											{
												OFFSET 3.077995 0.000275 -0.000009
												CHANNELS 3 Xrotation Yrotation Zrotation
												End Site
												{
													OFFSET 3.077988 0.000259 0.000131
												}
											}
										}
									}
								}
								JOINT mixamorig:LeftHandMiddle1
								{
									OFFSET 12.775536 0.001129 0.000014
									CHANNELS 3 Xrotation Yrotation Zrotation
									JOINT mixamorig:LeftHandMiddle2
									{
										OFFSET 3.613968 0.000320 0.000000
										CHANNELS 3 Xrotation Yrotation Zrotation
										JOINT mixamorig:LeftHandMiddle3
										{
											OFFSET 3.459763 0.000305 -0.000028
											CHANNELS 3 Xrotation Yrotation Zrotation
											JOINT mixamorig:LeftHandMiddle4
											{
												OFFSET 3.680191 0.000320 0.000031
												CHANNELS 3 Xrotation Yrotation Zrotation
												End Site
												{
													OFFSET 3.680191 0.000351 -0.004814
												}
											}
										}
									}
								}
								JOINT mixamorig:LeftHandRing1
								{
									OFFSET 12.147018 0.011063 -2.216636
									CHANNELS 3 Xrotation Yrotation Zrotation
									JOINT mixamorig:LeftHandRing2
									{
										OFFSET 3.601181 0.000320 0.000033
										CHANNELS 3 Xrotation Yrotation Zrotation
										JOINT mixamorig:LeftHandRing3
										{
											OFFSET 3.307320 0.000305 -0.000023
											CHANNELS 3 Xrotation Yrotation Zrotation
											JOINT mixamorig:LeftHandRing4
											{
												OFFSET 3.660118 0.000320 0.000000
												CHANNELS 3 Xrotation Yrotation Zrotation
												End Site
												{
													OFFSET 3.660103 0.000229 0.005616
												}
											}
										}
									}
								}
								JOINT mixamorig:LeftHandPinky1
								{
									OFFSET 10.908218 -0.225174 -4.725837
									CHANNELS 3 Xrotation Yrotation Zrotation
									JOINT mixamorig:LeftHandPinky2
									{
										OFFSET 4.136658 0.000351 0.001166
										CHANNELS 3 Xrotation Yrotation Zrotation
										JOINT mixamorig:LeftHandPinky3
										{
											OFFSET 2.594826 0.000244 -0.001180
											CHANNELS 3 Xrotation Yrotation Zrotation
											JOINT mixamorig:LeftHandPinky4
											{
												OFFSET 2.923874 0.000244 0.000018
												CHANNELS 3 Xrotation Yrotation Zrotation
												End Site
												{
													OFFSET 2.923851 0.000275 -0.003346
												}
											}
										}
									}
								}
							}
						}
					}
				}
				JOINT mixamorig:RightShoulder
				{
					OFFSET -6.106495 9.109970 0.705565
					CHANNELS 3 Xrotation Yrotation Zrotation
					JOINT mixamorig:RightArm
					{
						OFFSET -12.655020 -0.267136 -2.600890
						CHANNELS 3 Xrotation Yrotation Zrotation
						JOINT mixamorig:RightForeArm
						{
							OFFSET -27.404675 -0.002365 0.000019
							CHANNELS 3 Xrotation Yrotation Zrotation
							JOINT mixamorig:RightHand
							{
								OFFSET -27.614464 -0.002396 0.000031
								CHANNELS 3 Xrotation Yrotation Zrotation
								JOINT mixamorig:RightHandThumb1
								{
									OFFSET -3.788620 -2.167480 3.002977
									CHANNELS 3 Xrotation Yrotation Zrotation
									JOINT mixamorig:RightHandThumb2
									{
										OFFSET -3.675247 -2.122314 2.122009
										CHANNELS 3 Xrotation Yrotation Zrotation
										JOINT mixamorig:RightHandThumb3
										{
											OFFSET -3.394188 -1.960129 1.959755
											CHANNELS 3 Xrotation Yrotation Zrotation
											JOINT mixamorig:RightHandThumb4
											{
												OFFSET -2.679230 -1.547195 1.546953
												CHANNELS 3 Xrotation Yrotation Zrotation
												End Site
												{
													OFFSET -2.398781 -1.531693 1.965949
												}
											}
										}
									}
								}
								JOINT mixamorig:RightHandIndex1
								{
									OFFSET -12.266594 -0.232895 2.822051
									CHANNELS 3 Xrotation Yrotation Zrotation
									JOINT mixamorig:RightHandIndex2
									{
										OFFSET -3.891968 -0.000336 0.000040
										CHANNELS 3 Xrotation Yrotation Zrotation
										JOINT mixamorig:RightHandIndex3
										{
											OFFSET -3.415161 -0.000305 -0.000006
											CHANNELS 3 Xrotation Yrotation Zrotation
											JOINT mixamorig:RightHandIndex4
											{
												OFFSET -3.077988 -0.000275 0.000006
												CHANNELS 3 Xrotation Yrotation Zrotation
												End Site
												{
													OFFSET -3.077980 0.000229 -0.008454
												}
											}
										}
									}
								}
								JOINT mixamorig:RightHandMiddle1
								{
									OFFSET -12.775528 -0.001114 0.000025
									CHANNELS 3 Xrotation Yrotation Zrotation
									JOINT mixamorig:RightHandMiddle2
									{
										OFFSET -3.613968 -0.000320 0.000005
										CHANNELS 3 Xrotation Yrotation Zrotation
										JOINT mixamorig:RightHandMiddle3
										{
											OFFSET -3.459763 -0.000305 -0.000025
											CHANNELS 3 Xrotation Yrotation Zrotation
											JOINT mixamorig:RightHandMiddle4
											{
												OFFSET -3.680191 -0.000320 0.000034
												CHANNELS 3 Xrotation Yrotation Zrotation
												End Site
												{
													OFFSET -3.680168 -0.000031 0.012581
												}
											}
										}
									}
								}
								JOINT mixamorig:RightHandRing1
								{
									OFFSET -12.147003 0.008942 -2.216624
									CHANNELS 3 Xrotation Yrotation Zrotation
									JOINT mixamorig:RightHandRing2
									{
										OFFSET -3.601196 -0.000320 0.000037
										CHANNELS 3 Xrotation Yrotation Zrotation
										JOINT mixamorig:RightHandRing3
										{
											OFFSET -3.307312 -0.000290 -0.000019
											CHANNELS 3 Xrotation Yrotation Zrotation
											JOINT mixamorig:RightHandRing4
											{
												OFFSET -3.660118 -0.000320 0.000002
												CHANNELS 3 Xrotation Yrotation Zrotation
												End Site
												{
													OFFSET -3.660110 0.000107 0.002180
												}
											}
										}
									}
								}
								JOINT mixamorig:RightHandPinky1
								{
									OFFSET -10.908173 -0.227081 -4.725826
									CHANNELS 3 Xrotation Yrotation Zrotation
									JOINT mixamorig:RightHandPinky2
									{
										OFFSET -4.136642 -0.000366 0.000029
										CHANNELS 3 Xrotation Yrotation Zrotation
										JOINT mixamorig:RightHandPinky3
										{
											OFFSET -2.594841 -0.000229 -0.000036
											CHANNELS 3 Xrotation Yrotation Zrotation
											JOINT mixamorig:RightHandPinky4
											{
												OFFSET -2.923874 -0.000259 0.000021
												CHANNELS 3 Xrotation Yrotation Zrotation
												End Site
												{
													OFFSET -2.923820 0.000336 -0.012876
												}
											}
										}
									}
								}
							}
						}
					}
				}
			}
		}
	}
	JOINT mixamorig:LeftUpLeg
	{
		OFFSET 9.124458 -6.656387 -0.055378
		CHANNELS 3 Xrotation Yrotation Zrotation
		JOINT mixamorig:LeftLeg
		{
			OFFSET 0.244681 -40.595421 -0.515619
			CHANNELS 3 Xrotation Yrotation Zrotation
			JOINT mixamorig:LeftFoot
			{
				OFFSET -0.244669 -42.047928 -2.059156
				CHANNELS 3 Xrotation Yrotation Zrotation
				JOINT mixamorig:LeftToeBase
				{
					OFFSET 0.373535 -7.208548 13.966561
					CHANNELS 3 Xrotation Yrotation Zrotation
					JOINT mixamorig:LeftToe_End
					{
						OFFSET -0.142059 -0.175224 9.997455
						CHANNELS 3 Xrotation Yrotation Zrotation
						End Site
						{
							OFFSET -0.142060 -0.175223 9.997459
						}
					}
				}
			}
		}
	}
	JOINT mixamorig:RightUpLeg
	{
		OFFSET -9.124448 -6.656403 -0.055378
		CHANNELS 3 Xrotation Yrotation Zrotation
		JOINT mixamorig:RightLeg
		{
			OFFSET -0.244680 -40.595459 -0.514290
			CHANNELS 3 Xrotation Yrotation Zrotation
			JOINT mixamorig:RightFoot
			{
				OFFSET 0.244670 -42.047859 -2.060535
				CHANNELS 3 Xrotation Yrotation Zrotation
				JOINT mixamorig:RightToeBase
				{
					OFFSET -0.373535 -7.208539 13.966558
					CHANNELS 3 Xrotation Yrotation Zrotation
					JOINT mixamorig:RightToe_End
					{
						OFFSET 0.141798 -0.175009 9.997463
						CHANNELS 3 Xrotation Yrotation Zrotation
						End Site
						{
							OFFSET 0.141798 -0.175009 9.997467
						}
					}
				}
			}
		}
	}
}
MOTION
Frames: 4
Frame Time: 0.033333
-0.242428 98.974121 0.101631 -0.175204 -10.129486 -3.168801 3.533997 2.321443 3.109948 -1.311956 0.325491 -1.658849 -1.303346 0.322722 -1.666201 -2.258038 -0.918691 3.600318 0.358980 -1.043661 9.505216 0.000000 -0.000001 0.000000 1.625805 -7.529780 9.153539 -16.056496 -76.625065 -15.373224 0.000339 -3.826579 0.000009 -0.101112 -3.252375 16.571851 -1.540384 3.690024 6.142313 3.938069 7.949320 0.747607 -0.579597 1.574938 2.538721 0.000004 0.000003 0.000006 0.065430 0.949579 -7.889373 0.053460 0.858281 -7.136633 0.130488 1.337653 -11.156498 -0.000000 0.000000 0.000001 0.154563 1.454272 -12.143847 0.060589 0.913930 -7.595997 0.126899 1.319132 -11.000102 0.000000 0.000000 0.000001 0.332611 2.118755 -17.847812 0.065216 0.947505 -7.884726 0.124728 1.308293 -10.908499 -0.000000 0.000000 0.000001 2.156192 6.470559 -22.836454 0.038673 -3.248141 -7.557829 0.129580 1.358828 -11.112865 0.000000 0.000000 -0.000001 2.621142 37.632908 3.197732 8.916583 46.586210 -6.669211 -0.001188 13.439508 0.000140 5.195900 -14.340844 -49.338572 -0.755862 -9.465951 -15.176545 4.637531 -8.633957 -0.226339 -1.273786 0.137197 -2.094867 -0.000000 0.000003 -0.000001 0.012748 -0.421136 3.453621 0.082777 -1.070739 8.826127 0.072025 -0.999594 8.231495 0.000001 -0.000003 -0.000003 0.068917 -0.977931 8.051758 0.085675 -1.089701 8.979552 0.073831 -1.012042 8.334736 -0.000002 0.000001 -0.000001 0.206277 -1.683830 13.953579 0.092053 -1.128847 9.312552 0.072275 -1.001731 8.249177 0.000000 0.000002 0.000001 0.394947 -2.313723 19.359288 0.081819 -1.064729 8.781997 0.071691 -0.998139 8.209459 -0.000001 -0.000001 0.000000 -6.588354 14.178215 12.899450 11.972301 7.559997 -0.910218 -2.927651 14.494724 -8.229004 -0.996294 0.000021 -0.000004 0.000000 -0.000001 -0.000000 -5.984021 -6.416681 -5.793182 4.497832 -8.523086 -2.722229 5.643698 5.524647 11.566520 -2.513777 0.039902 -1.314264 -0.000000 -0.000001 0.000000 
0.027651 98.862541 0.297698 -2.309947 -12.386117 -4.006716 5.118820 2.295760 3.901719 -1.361413 0.323587 -1.906958 -1.351690 0.315820 -1.915245 -1.137747 -0.546590 3.610887 0.576246 0.507023 9.241558 0.000000 0.000000 -0.000000 1.463705 -6.717576 9.081154 -19.018011 -76.235805 -19.154306 0.000310 -3.443099 0.000024 -0.032377 -2.659312 16.211427 -1.540387 3.690026 6.142332 3.938070 7.949316 0.747587 -0.579597 1.574940 2.538723 0.000002 0.000000 0.000001 0.061578 0.921388 -7.653481 0.051452 0.841993 -7.000742 0.128908 1.329610 -11.088533 0.000000 -0.000000 -0.000000 0.149017 1.428217 -11.923002 0.058532 0.898404 -7.466064 0.125475 1.311770 -10.937828 -0.000000 0.000000 0.000000 0.324927 2.094737 -17.638598 0.063370 0.934073 -7.772260 0.123514 1.301997 -10.855346 -0.000000 0.000001 0.000001 2.132848 6.453485 -22.629006 0.037283 -3.258947 -7.467407 0.128531 1.353459 -11.067589 0.000000 0.000001 -0.000001 2.618119 37.672141 3.207151 6.681148 48.204251 -4.139603 -0.001178 13.327616 0.000140 5.650438 -13.474493 -47.562617 -0.755875 -9.465923 -15.176566 4.637541 -8.633967 -0.226318 -1.273784 0.137199 -2.094862 0.000001 -0.000002 -0.000003 0.013900 -0.439762 3.606836 0.083352 -1.074430 8.856644 0.072296 -1.001424 8.246782 0.000002 -0.000001 -0.000001 0.070769 -0.990924 8.159529 0.086023 -1.091954 8.998417 0.073933 -1.012735 8.340474 -0.000000 0.000000 -0.000002 0.208039 -1.690870 14.013269 0.091944 -1.128212 9.307259 0.072174 -1.001025 8.243218 0.000001 -0.000002 -0.000001 0.395870 -2.316327 19.381992 0.081287 -1.061340 8.753891 0.071446 -0.996443 8.195424 -0.000001 -0.000002 -0.000001 -4.470913 14.370464 13.595159 13.355661 7.622139 -1.618817 -4.254378 15.574752 -8.090577 -1.068962 -0.000002 -0.000002 0.000000 0.000001 -0.000000 -4.885516 -4.844000 -6.024728 6.168771 -5.314109 -1.654112 5.284316 3.852200 11.347059 -3.013987 0.036937 -1.197758 -0.000000 -0.000001 -0.000000 
0.169695 98.639473 0.485264 -3.818353 -14.708978 -4.278898 5.734676 2.219495 4.244718 -1.064834 0.312527 -1.981627 -1.055048 0.300464 -1.988921 -0.735435 -0.238416 3.321523 1.149041 1.867273 7.683223 0.000000 0.000000 -0.000002 1.113967 -5.070899 8.423305 -19.835750 -76.160448 -20.421212 0.000274 -3.113148 0.000009 0.186764 -2.414864 15.778340 -1.540395 3.690024 6.142333 3.938069 7.949314 0.747595 -0.579599 1.574940 2.538721 0.000003 0.000001 0.000006 0.061028 0.917295 -7.619184 0.050813 0.836836 -6.957589 0.128409 1.327078 -11.066981 0.000000 0.000001 -0.000001 0.147948 1.423168 -11.880213 0.057835 0.893019 -7.421156 0.124945 1.309045 -10.914797 -0.000000 -0.000001 0.000001 0.322945 2.088501 -17.584313 0.062612 0.928512 -7.725710 0.122981 1.299228 -10.831852 -0.000000 -0.000000 -0.000003 2.125448 6.448030 -22.563187 0.036581 -3.264452 -7.421486 0.127996 1.350754 -11.044616 -0.000000 0.000000 0.000000 2.587145 37.110282 3.213691 5.801937 50.115311 -2.715242 -0.001136 12.885377 0.000138 5.809659 -13.212787 -46.746894 -0.755867 -9.465940 -15.176557 4.637538 -8.633966 -0.226328 -1.273786 0.137197 -2.094864 0.000001 -0.000000 -0.000001 0.015833 -0.469440 3.850823 0.087204 -1.098840 9.059454 0.074080 -1.013654 8.348177 0.000001 0.000003 -0.000000 0.074416 -1.016003 8.367389 0.089261 -1.112134 9.166128 0.075451 -1.023013 8.425644 -0.000001 0.000000 -0.000002 0.213166 -1.711264 14.186022 0.094270 -1.142317 9.424472 0.073194 -1.008083 8.301834 0.000001 -0.000003 0.000001 0.401995 -2.333646 19.532845 0.082635 -1.070009 8.825891 0.072069 -1.000787 8.231397 0.000000 0.000002 -0.000000 -3.036223 15.255135 13.824601 14.691602 7.281170 -2.311972 -5.472600 16.794660 -7.919080 -1.091783 -0.000005 -0.000001 -0.000000 -0.000003 0.000000 -4.551786 -5.338052 -6.260864 7.329168 -1.602830 -1.444947 4.657109 2.758935 9.977119 -3.592405 0.000106 -0.002596 -0.000000 0.000004 0.000000 
0.148791 98.265999 0.671579 -4.710329 -15.707757 -3.947321 5.704926 2.126669 4.182006 -0.759726 0.295483 -1.796357 -0.751009 0.282865 -1.802186 -0.396810 -0.026371 2.519779 1.431445 2.328812 5.006116 -0.000000 -0.000001 0.000000 0.977390 -4.163801 7.378915 -18.686706 -76.018407 -19.543458 0.000261 -2.916829 0.000015 0.508016 -2.312021 15.316552 -1.540393 3.690011 6.142331 3.938071 7.949316 0.747585 -0.579596 1.574945 2.538722 0.000003 0.000002 0.000003 0.063982 0.939094 -7.801562 0.051831 0.845110 -7.026701 0.129204 1.331144 -11.101517 -0.000000 -0.000001 -0.000000 0.151855 1.441617 -12.036608 0.058773 0.900208 -7.481244 0.125543 1.312120 -10.940855 0.000000 0.000001 0.000000 0.327572 2.103031 -17.711159 0.063268 0.933335 -7.765877 0.123357 1.301152 -10.848337 0.000000 0.000000 -0.000001 2.137307 6.456743 -22.668657 0.036883 -3.262071 -7.441427 0.128230 1.351927 -11.054587 0.000000 0.000000 0.000000 2.518115 36.021571 3.224776 6.255416 52.028433 -2.201365 -0.001090 12.318003 0.000123 5.797880 -13.373261 -46.628766 -0.755874 -9.465923 -15.176551 4.637535 -8.633956 -0.226317 -1.273787 0.137197 -2.094867 -0.000000 0.000003 -0.000001 0.018239 -0.503660 4.132325 0.094336 -1.142679 9.424123 0.077341 -1.035634 8.530491 -0.000000 -0.000000 0.000001 0.079286 -1.048546 8.637621 0.095754 -1.151630 9.494649 0.078522 -1.043534 8.596091 0.000000 -0.000001 -0.000002 0.221194 -1.742690 14.452323 0.099900 -1.175709 9.702542 0.075729 -1.025311 8.444778 -0.000001 0.000001 0.000000 0.413116 -2.364715 19.804089 0.087009 -1.097824 9.057141 0.074108 -1.014736 8.347051 -0.000000 -0.000002 -0.000000 -2.223273 13.838405 13.533926 16.686922 7.036388 -3.372613 -6.959888 18.654633 -7.568545 -0.961462 -0.000010 -0.000000 -0.000000 -0.000004 0.000000 -5.970699 -4.399233 -6.869296 11.827448 -1.632360 -1.500073 1.305275 2.105426 9.299833 -1.896363 -0.008854 0.750274 -0.000000 -0.000002 -0.000000 
